<?xml version="1.0" standalone="no"?>
<!DOCTYPE svg PUBLIC "-//W3C//DTD SVG 20010904//EN"
 "http://www.w3.org/TR/2001/REC-SVG-20010904/DTD/svg10.dtd">
<svg version="1.0" xmlns="http://www.w3.org/2000/svg"
 width="700.000000pt" height="700.000000pt" viewBox="0 0 700.000000 700.000000"
 preserveAspectRatio="xMidYMid meet">
<metadata>
Created by potrace 1.14, written by Peter Selinger 2001-2017
</metadata>
<g transform="translate(0.000000,700.000000) scale(0.100000,-0.100000)"
fill="#000000" stroke="none">
<path d="M3530 6664 c24 -27 98 -109 130 -144 8 -9 60 -65 115 -126 55 -60
121 -131 147 -159 25 -27 55 -60 65 -71 15 -19 38 -27 123 -48 8 -2 83 -21
165 -41 83 -20 161 -39 175 -41 14 -3 36 -9 50 -14 20 -7 193 -50 260 -65 18
-4 92 -22 140 -34 277 -73 523 -132 536 -129 7 2 76 64 154 138 78 74 174 165
213 202 39 37 69 69 66 72 -12 12 -201 101 -304 144 -241 99 -579 197 -850
247 -73 14 -356 55 -410 60 -33 3 -85 8 -115 11 -110 12 -160 14 -420 20
l-265 6 25 -28z"/>
<path d="M3007 6674 c-1 -1 -47 -5 -102 -9 -55 -3 -113 -8 -130 -10 -100 -12
-125 -15 -175 -20 -30 -3 -82 -10 -115 -15 -33 -5 -78 -12 -100 -15 -22 -4
-59 -11 -83 -16 -23 -5 -59 -12 -80 -15 -77 -11 -402 -95 -517 -133 -421 -138
-721 -308 -955 -541 -263 -262 -413 -615 -466 -1102 -12 -111 -5 -424 11 -519
2 -13 6 -46 10 -74 12 -116 51 -305 100 -495 20 -74 38 -145 40 -157 13 -57
24 -72 62 -82 21 -5 72 -19 113 -30 198 -52 506 -156 673 -227 34 -14 71 -30
82 -34 11 -5 113 -54 226 -110 228 -112 301 -164 470 -332 189 -187 313 -356
417 -563 144 -291 210 -561 227 -940 22 -470 120 -792 303 -987 82 -88 79 -92
79 110 -1 158 9 416 18 512 2 19 6 67 10 105 12 130 36 284 44 290 6 3 62
-165 76 -225 2 -8 20 -71 40 -140 20 -69 68 -233 106 -365 106 -360 106 -361
113 -345 6 16 178 601 266 905 29 99 56 184 60 189 10 10 16 -9 29 -99 17
-116 20 -136 26 -230 4 -49 9 -101 11 -115 3 -14 7 -166 10 -337 3 -172 8
-314 11 -315 16 -4 124 120 166 191 73 122 148 336 171 486 13 86 19 122 22
140 2 11 6 70 9 130 7 140 15 260 20 305 3 19 7 55 10 80 3 25 14 88 25 140
57 272 157 512 306 732 99 147 135 190 274 328 149 149 177 173 263 224 351
207 791 383 1274 511 101 27 101 28 111 64 66 247 84 321 102 411 12 58 24
116 26 130 2 14 7 36 9 50 3 14 7 48 10 75 3 28 8 61 10 75 29 187 25 543 -10
720 -41 213 -89 367 -165 527 -27 58 -76 144 -107 192 -56 83 -254 294 -318
338 l-30 21 -115 -110 c-63 -61 -166 -158 -229 -217 l-113 -106 -70 -145 c-39
-80 -86 -178 -104 -217 -82 -176 -104 -224 -147 -313 -53 -111 -170 -359 -195
-412 -9 -20 -20 -34 -23 -32 -3 2 4 50 16 106 12 57 28 132 34 168 7 36 15 74
17 85 2 11 8 45 14 75 12 63 10 55 44 226 14 71 28 144 31 163 3 19 8 37 10
40 2 4 6 27 10 51 3 25 8 52 10 60 2 8 7 29 10 46 l5 31 -655 163 -655 163
-74 -27 c-123 -45 -351 -168 -441 -238 -142 -111 -206 -171 -296 -274 -80 -93
-212 -281 -207 -295 3 -7 92 -121 447 -574 73 -93 144 -183 156 -200 13 -16
63 -79 110 -139 70 -90 83 -112 70 -119 -13 -7 -181 -57 -615 -181 -69 -20
-138 -40 -155 -45 -24 -8 -428 -125 -687 -200 l-57 -16 31 -65 c41 -88 99
-236 136 -345 37 -108 103 -355 95 -355 -3 0 -46 31 -97 68 -447 334 -980 592
-1595 773 -74 21 -135 40 -136 42 -6 6 -41 152 -81 332 -9 43 -34 193 -39 240
-3 28 -8 66 -11 85 -10 58 -12 360 -3 440 13 117 19 159 35 233 17 81 74 257
83 257 9 0 363 -267 466 -352 l89 -74 77 115 c254 382 566 651 989 855 107 50
320 139 320 131 0 -1 -24 -21 -52 -43 -29 -22 -63 -48 -74 -58 -12 -11 -48
-41 -80 -68 -33 -27 -122 -113 -199 -190 -223 -225 -358 -409 -480 -661 -65
-133 -156 -366 -155 -398 0 -7 28 -41 60 -76 152 -161 381 -458 459 -595 34
-59 38 -61 86 -47 80 24 312 92 325 95 8 2 71 21 140 41 69 20 154 45 190 55
75 20 439 126 487 141 l32 10 -57 73 c-89 114 -306 392 -471 601 l-149 190 40
75 c221 411 567 742 971 926 31 15 57 29 57 33 0 6 -7 14 -165 186 -49 54 -94
103 -100 109 -48 53 -219 240 -255 278 l-45 49 -78 -3 c-43 -2 -79 -4 -80 -4z
m3396 -1489 c65 -207 82 -325 82 -585 0 -299 -29 -504 -126 -872 -9 -34 -14
-38 -67 -53 -464 -132 -889 -307 -1227 -505 -49 -29 -106 -62 -125 -73 -53
-30 -303 -201 -362 -247 -28 -22 -53 -39 -55 -37 -2 3 19 67 47 143 154 418
367 812 642 1187 45 62 85 114 88 117 3 3 36 43 74 90 133 165 371 416 541
571 155 140 444 364 456 351 4 -4 18 -43 32 -87z m-3573 -2076 c171 -188 243
-268 267 -295 21 -25 156 -174 193 -214 14 -15 53 -58 87 -96 34 -38 80 -89
102 -114 l42 -45 20 25 c12 14 58 65 103 115 44 49 99 109 121 134 22 25 49
55 60 66 11 12 49 54 85 95 36 40 70 78 75 84 6 6 53 58 105 116 224 249 233
258 222 235 -49 -102 -160 -332 -257 -530 -65 -132 -134 -276 -155 -320 -21
-44 -98 -204 -172 -355 -74 -151 -149 -308 -168 -347 -19 -40 -38 -73 -41 -73
-3 0 -36 64 -74 143 -38 78 -129 266 -203 417 -74 151 -162 334 -197 405 -35
72 -118 243 -185 380 -126 259 -151 314 -127 284 7 -9 51 -59 97 -110z"/>
</g>
</svg>
